HIERARCHY
ROOT Hips
{
	OFFSET 0.000000 0.000000 0.000000
	CHANNELS 6 Xposition Yposition Zposition Zrotation Yrotation Xrotation 
	JOINT LHipJoint
	{
		OFFSET 0.000000 0.000000 0.000000
		CHANNELS 3 Zrotation Yrotation Xrotation
		JOINT LeftUpLeg
		{
			OFFSET 1.363060 -1.794630 0.839290
			CHANNELS 3 Zrotation Yrotation Xrotation
			JOINT LeftLeg
			{
				OFFSET 2.448110 -6.726130 0.000000
				CHANNELS 3 Zrotation Yrotation Xrotation
				JOINT LeftFoot
				{
					OFFSET 2.562200 -7.039590 0.000000
					CHANNELS 3 Zrotation Yrotation Xrotation
					JOINT LeftToeBase
					{
						OFFSET 0.157640 -0.433110 2.322550
						CHANNELS 3 Zrotation Yrotation Xrotation
						End Site
						{
							OFFSET 0.000000 0.000000 0.000000
						}
					}
				}
			}
		}
	}
	JOINT RHipJoint
	{
		OFFSET 0.000000 0.000000 0.000000
		CHANNELS 3 Zrotation Yrotation Xrotation
		JOINT RightUpLeg
		{
			OFFSET -1.305520 -1.794630 0.839290
			CHANNELS 3 Zrotation Yrotation Xrotation
			JOINT RightLeg
			{
				OFFSET -2.542530 -6.985550 0.000000
				CHANNELS 3 Zrotation Yrotation Xrotation
				JOINT RightFoot
				{
					OFFSET -2.568260 -7.056230 0.000000
					CHANNELS 3 Zrotation Yrotation Xrotation
					JOINT RightToeBase
					{
						OFFSET -0.164730 -0.452590 2.363150
						CHANNELS 3 Zrotation Yrotation Xrotation
						End Site
						{
							OFFSET 0.000000 0.000000 0.000000
						}
					}
				}
			}
		}
	}
}
MOTION
Frames: 28
Frame Time: 0.008333
-9.978254 18.138051 -1.930279 146.683157 85.788314 166.844654 -9.216665 1.386873 3.294457 -11.984899 -0.312576 -32.352347 -3.133957 -1.051148 4.332269 0.368127 3.082184 3.730383 1.065700 -0.000000 -47.767700 10.661470 -3.263623 0.577642 7.500968 -2.758584 -7.418936 0.474863 -1.651406 21.855064 0.089648 6.641656 25.388129 3.495799 -0.000000 -64.793500
-9.758230 18.104071 -1.933730 146.780554 86.041400 166.597956 -9.207803 1.336645 3.209214 -12.054507 0.297085 -32.429938 -3.269115 -1.113004 3.429695 0.155444 1.667462 4.006657 0.783600 0.000000 -49.414200 10.701823 -3.253104 0.487279 7.375877 -2.850959 -7.187769 0.339336 -1.743495 23.555650 0.017425 6.424335 25.377958 3.414599 -0.000000 -64.850101
-9.538857 18.057843 -1.935553 146.434043 86.247489 165.876582 -9.190320 1.297141 3.131801 -12.090927 0.719825 -32.454665 -3.360464 -1.139275 2.903851 -0.001651 0.577924 4.249163 0.561300 0.000000 -50.773699 10.757130 -3.230192 0.380864 7.196028 -2.961741 -6.993148 0.199122 -1.842147 25.466684 -0.060155 6.050199 25.056178 3.223100 0.000000 -64.911200
-9.319999 17.999094 -1.936081 145.706609 86.411152 164.762893 -9.167024 1.268645 3.077697 -12.051013 0.898382 -32.430421 -3.401280 -1.132015 2.732507 -0.098171 -0.115525 4.457317 0.416600 -0.000000 -51.769799 10.825597 -3.197253 0.260486 6.971020 -3.086972 -6.861057 0.057854 -1.948617 27.589077 -0.141663 5.540206 24.442180 2.940200 0.000001 -64.992100
-9.102033 17.927682 -1.935538 144.677867 86.542103 163.339508 -9.141175 1.251039 3.039951 -11.938731 0.874171 -32.392563 -3.397535 -1.087654 2.962735 -0.142313 -0.459750 4.581676 0.340600 0.000000 -52.279200 10.904639 -3.157837 0.129417 6.710010 -3.221963 -6.796086 -0.081787 -2.063924 29.909605 -0.226410 4.915903 23.571411 2.588400 0.000000 -65.165199
-8.884903 17.843569 -1.933828 143.183164 86.634245 161.470035 -9.107080 1.243731 3.037385 -11.747191 0.577131 -32.352318 -3.347211 -1.014612 3.553056 -0.129485 -0.396908 4.611000 0.348900 0.000000 -52.338200 11.000900 -3.112320 -0.009173 6.391366 -3.376886 -6.848064 -0.218572 -2.189576 32.441448 -0.312767 4.220185 22.460057 2.200500 0.000000 -65.380200
-8.669003 17.747011 -1.930762 141.081009 86.683830 159.024328 -9.060483 1.245401 3.064544 -11.518880 0.045391 -32.357970 -3.260925 -0.914349 4.541004 -0.067693 0.004208 4.484160 0.426100 -0.000000 -51.932500 11.118699 -3.062983 -0.149782 5.996023 -3.557247 -7.042750 -0.352031 -2.326634 35.178401 -0.399790 3.484834 21.140633 1.803600 -0.000000 -65.632500
-8.454749 17.638570 -1.926179 138.228873 86.684587 155.871378 -8.997958 1.254354 3.111182 -11.314206 -0.652084 -32.475917 -3.152499 -0.786789 5.983428 0.032234 0.636956 4.130568 0.543800 0.000000 -51.090000 11.261225 -3.012329 -0.284044 5.503812 -3.765303 -7.408023 -0.482838 -2.475616 38.110970 -0.486550 2.734719 19.647553 1.418900 0.000000 -65.882900
-8.242639 17.519063 -1.920112 134.637828 86.638431 152.029736 -8.921980 1.268519 3.156792 -11.201286 -1.385580 -32.797244 -3.038637 -0.626599 7.974563 0.153284 1.336119 3.465598 0.655200 0.000000 -49.838700 11.425749 -2.963574 -0.399923 4.914021 -3.990839 -7.964341 -0.612900 -2.635662 41.219962 -0.572571 1.977742 18.019946 1.057500 0.000000 -66.076700
-8.033251 17.389777 -1.912653 130.349998 86.548134 147.544295 -8.837216 1.284780 3.183916 -11.225339 -2.050564 -33.374807 -2.929304 -0.430316 10.559178 0.282826 1.982192 2.436342 0.721601 0.000000 -48.244000 11.608262 -2.917528 -0.489754 4.229235 -4.223654 -8.719350 -0.744746 -2.805806 44.476427 -0.657584 1.216402 16.296582 0.726000 0.000001 -66.150400
-7.827147 17.252464 -1.904218 125.551483 86.427388 142.600353 -8.752838 1.298985 3.177182 -11.397444 -2.556762 -34.233991 -2.827828 -0.194943 13.743687 0.411330 2.492486 1.019257 0.716700 0.000000 -46.380000 11.800643 -2.874031 -0.548275 3.474117 -4.445606 -9.668532 -0.881113 -2.984397 47.841707 -0.742029 0.441894 14.515710 0.424701 0.000000 -66.033100
-7.624890 17.109409 -1.895627 120.485255 86.299848 137.438112 -8.680826 1.304505 3.127725 -11.686473 -2.854361 -35.357791 -2.730279 0.077884 17.468987 0.534985 2.843663 -0.769959 0.634500 0.000000 -44.312700 11.991914 -2.832791 -0.574158 2.693534 -4.633316 -10.797221 -1.023929 -3.169804 51.268341 -0.827272 -0.362253 12.711975 0.151100 0.000000 -65.652500
-7.426962 16.963633 -1.887503 115.255586 86.184088 132.156685 -8.631400 1.293207 3.036157 -12.038282 -2.953489 -36.671366 -2.628985 0.377503 21.585441 0.657341 3.082766 -2.866118 0.489500 0.000000 -42.144500 12.172237 -2.792454 -0.572440 1.927118 -4.770145 -12.082976 -1.173900 -3.361375 54.702684 -0.915141 -1.208913 10.915560 -0.096100 -0.000000 -64.963800
-7.233647 16.818875 -1.880149 109.807558 86.084038 126.693812 -8.611116 1.259090 2.908523 -12.404710 -2.895295 -38.062251 -2.519521 0.686578 25.882256 0.784533 3.283836 -5.170936 0.300700 -0.000000 -40.037500 12.334055 -2.750007 -0.552592 1.196566 -4.850641 -13.499856 -1.330703 -3.558955 58.089748 -1.006906 -2.100835 9.145588 -0.314500 -0.000000 -63.909400
-7.045127 16.679338 -1.873395 104.022322 85.989501 120.921913 -8.622759 1.201303 2.751614 -12.756829 -2.719772 -39.412176 -2.404043 0.986838 30.136445 0.920764 3.507385 -7.578547 0.081100 0.000000 -38.172100 12.471616 -2.700590 -0.524726 0.509878 -4.877079 -15.022347 -1.493483 -3.761343 61.374073 -1.103454 -3.033897 7.416590 -0.500800 0.000000 -62.466000
-6.861318 16.549325 -1.866829 97.838049 85.881445 114.770496 -8.665408 1.125257 2.571878 -13.082311 -2.457884 -40.616185 -2.289705 1.263362 34.145410 1.067122 3.788686 -9.989304 -0.163400 -0.000000 -36.718501 12.581031 -2.637454 -0.498067 -0.131456 -4.859068 -16.628272 -1.660616 -3.965472 64.503314 -1.204873 -3.997163 5.735685 -0.650900 -0.000000 -60.644401
-6.681905 16.432863 -1.859902 91.243179 85.737060 108.222602 -8.734754 1.040958 2.374982 -13.380392 -2.128863 -41.596247 -2.185689 1.506238 37.746312 1.222138 4.140758 -12.316408 -0.430300 -0.000000 -35.814300 12.660840 -2.552968 -0.477822 -0.728103 -4.804570 -18.304439 -1.829759 -4.166634 67.433385 -1.310343 -4.972576 4.106449 -0.760700 0.000000 -58.486500
-6.506416 16.333343 -1.852203 84.402079 85.540824 101.438155 -8.824321 0.959877 2.166994 -13.646428 -1.749806 -42.299792 -2.099717 1.709846 40.821229 1.382459 4.559596 -14.489033 -0.716500 0.000000 -35.503700 12.711373 -2.439835 -0.467781 -1.272249 -4.725498 -20.039863 -1.997036 -4.358893 70.125629 -1.418041 -5.937323 2.527593 -0.827200 0.000001 -56.034500
-6.334256 16.253327 -1.843589 77.557312 85.288468 94.656887 -8.927179 0.891012 1.954045 -13.868466 -1.336507 -42.697675 -2.036577 1.871126 43.294898 1.543468 5.031324 -16.449012 -1.016000 0.000000 -35.767900 12.733833 -2.293370 -0.469679 -1.745697 -4.632129 -21.824789 -2.157086 -4.536381 72.546331 -1.525398 -6.865070 1.001485 -0.848700 0.000000 -53.380000
-6.164627 16.194337 -1.834030 70.905797 84.982448 88.076270 -9.036084 0.840138 1.742662 -14.035818 -0.905555 -42.780912 -1.998305 1.988175 45.128299 1.700407 5.539412 -18.151348 -1.319200 -0.000001 -36.503800 12.730648 -2.111969 -0.482608 -2.131086 -4.531791 -23.654153 -2.303788 -4.694530 74.670373 -1.628673 -7.723633 -0.466190 -0.825700 -0.000000 -50.637500
-5.996642 16.156943 -1.823638 64.595712 84.631615 81.846896 -9.145449 0.808909 1.539661 -14.136373 -0.475292 -42.556392 -1.984169 2.060028 46.314314 1.848624 6.066648 -19.564142 -1.614000 -0.000000 -37.545500 12.703501 -1.897689 -0.504741 -2.408905 -4.430682 -25.522288 -2.430668 -4.830219 76.478338 -1.723185 -8.477922 -1.864823 -0.761800 0.000001 -47.920900
-5.829412 16.140744 -1.812603 58.698963 84.247736 76.045116 -9.251542 0.796114 1.351858 -14.160899 -0.064095 -42.044875 -1.991073 2.086909 46.873391 1.984084 6.598246 -20.666815 -1.887300 -0.000000 -38.697800 12.653337 -1.655241 -0.533082 -2.562908 -4.332987 -27.424459 -2.531806 -4.941543 77.956140 -1.803750 -9.092876 -3.174684 -0.664700 0.000001 -45.370900
-5.662025 16.144497 -1.801039 53.229790 83.842717 70.691109 -9.352218 0.799084 1.185579 -14.105525 0.311465 -41.279568 -2.014059 2.070636 46.849436 2.103711 7.123285 -21.448850 -2.126200 0.000001 -39.781300 12.580648 -1.391050 -0.563655 -2.581238 -4.240742 -29.356840 -2.602536 -5.027545 79.095102 -1.865162 -9.536644 -4.366501 -0.546600 0.000000 -43.146400
-5.493564 16.166429 -1.788878 48.174155 83.427274 65.779440 -9.446388 0.814941 1.046299 -13.971990 0.639040 -40.304513 -2.046892 2.014744 46.305548 2.205388 7.634372 -21.907610 -2.319200 -0.000001 -40.671600 12.486149 -1.112688 -0.591603 -2.456764 -4.154609 -31.316067 -2.639721 -5.088078 79.891173 -1.902684 -9.783696 -5.406223 -0.422700 0.000000 -41.396100
-5.323291 16.204288 -1.775924 43.512692 83.011448 61.299443 -9.533537 0.841171 0.937857 -13.768074 0.912789 -39.171744 -2.082894 1.924349 45.319616 2.288013 8.126732 -22.049002 -2.457200 0.000000 -41.316200 12.371126 -0.828045 -0.611391 -2.188042 -4.074343 -33.300084 -2.641947 -5.123844 80.343635 -1.912702 -9.818090 -6.255633 -0.309800 -0.000000 -40.272200
-5.150555 16.255705 -1.761701 39.235325 82.604507 57.249569 -9.613622 0.875918 0.861991 -13.506124 1.134811 -37.938008 -2.115921 1.805880 43.979483 2.350885 8.594564 -21.886066 -2.533000 0.000000 -41.730100 12.237510 -0.545344 -0.617417 -1.778359 -3.999585 -35.306188 -2.609293 -5.136540 80.454553 -1.893099 -9.634912 -6.881318 -0.221800 0.000000 -39.892000
-4.974879 16.318282 -1.745595 35.338478 82.215358 53.632521 -9.687598 0.918114 0.817412 -13.201491 1.318912 -36.660574 -2.141468 1.666876 42.378595 2.393060 9.027389 -21.439282 -2.541500 -0.000000 -41.979900 12.087334 -0.273059 -0.604413 -1.234979 -3.928990 -37.329835 -2.542960 -5.128819 80.229151 -1.843245 -9.239201 -7.263033 -0.166999 -0.000000 -40.294600
-4.796065 16.389871 -1.726676 31.866600 81.851899 50.494974 -9.755269 0.967783 0.801647 -12.875641 1.479315 -35.389304 -2.157203 1.514518 40.603581 2.413825 9.413341 -20.732342 -2.480200 -0.000000 -42.159700 11.924031 -0.018898 -0.569374 -0.574759 -3.870273 -39.362948 -2.444132 -5.104624 79.669689 -1.763599 -8.642295 -7.396932 -0.146400 -0.000000 -41.492200
